<mxfile host="65bd71144e">
    <diagram id="H1QiDuxzyqhmpF8wsAAJ" name="Page-1">
        <mxGraphModel dx="3112" dy="1685" grid="1" gridSize="10" guides="1" tooltips="1" connect="1" arrows="1" fold="1" page="1" pageScale="1" pageWidth="827" pageHeight="1169" math="0" shadow="0">
            <root>
                <mxCell id="0"/>
                <mxCell id="1" parent="0"/>
                <mxCell id="2" value="" style="whiteSpace=wrap;html=1;aspect=fixed;" parent="1" vertex="1">
                    <mxGeometry x="160" y="240" width="480" height="480" as="geometry"/>
                </mxCell>
                <mxCell id="3" value="" style="rounded=0;whiteSpace=wrap;html=1;" parent="1" vertex="1">
                    <mxGeometry x="160" y="220" width="160" height="10" as="geometry"/>
                </mxCell>
                <mxCell id="4" value="" style="rounded=0;whiteSpace=wrap;html=1;" parent="1" vertex="1">
                    <mxGeometry x="481" y="220" width="160" height="10" as="geometry"/>
                </mxCell>
                <mxCell id="6" value="task 1" style="text;html=1;strokeColor=none;fillColor=none;align=center;verticalAlign=middle;whiteSpace=wrap;rounded=0;fontSize=40;" parent="1" vertex="1">
                    <mxGeometry x="160" y="174" width="160" height="30" as="geometry"/>
                </mxCell>
                <mxCell id="7" value="task m" style="text;html=1;strokeColor=none;fillColor=none;align=center;verticalAlign=middle;whiteSpace=wrap;rounded=0;fontSize=40;" parent="1" vertex="1">
                    <mxGeometry x="481" y="174" width="160" height="30" as="geometry"/>
                </mxCell>
                <mxCell id="10" value="" style="ellipse;whiteSpace=wrap;html=1;aspect=fixed;fillColor=#000000;" parent="1" vertex="1">
                    <mxGeometry x="380" y="223.5" width="3" height="3" as="geometry"/>
                </mxCell>
                <mxCell id="11" value="" style="ellipse;whiteSpace=wrap;html=1;aspect=fixed;fillColor=#000000;" parent="1" vertex="1">
                    <mxGeometry x="420" y="223.5" width="3" height="3" as="geometry"/>
                </mxCell>
                <mxCell id="12" value="" style="ellipse;whiteSpace=wrap;html=1;aspect=fixed;fillColor=#000000;" parent="1" vertex="1">
                    <mxGeometry x="398.5" y="223.5" width="3" height="3" as="geometry"/>
                </mxCell>
                <mxCell id="32" value="" style="group;rotation=-90;" parent="1" vertex="1" connectable="0">
                    <mxGeometry x="-160" y="490" width="560" height="245.5" as="geometry"/>
                </mxCell>
                <mxCell id="23" value="" style="rounded=0;whiteSpace=wrap;html=1;rotation=-90;" parent="32" vertex="1">
                    <mxGeometry x="225" y="143" width="160" height="10" as="geometry"/>
                </mxCell>
                <mxCell id="24" value="" style="rounded=0;whiteSpace=wrap;html=1;rotation=-90;" parent="32" vertex="1">
                    <mxGeometry x="225.25" y="-175.25" width="159.5" height="10" as="geometry"/>
                </mxCell>
                <mxCell id="26" value="task 1" style="text;html=1;strokeColor=none;fillColor=none;align=center;verticalAlign=middle;whiteSpace=wrap;rounded=0;fontSize=40;rotation=-90;" parent="32" vertex="1">
                    <mxGeometry x="191.5" y="133.5" width="159" height="30" as="geometry"/>
                </mxCell>
                <mxCell id="27" value="task m" style="text;html=1;strokeColor=none;fillColor=none;align=center;verticalAlign=middle;whiteSpace=wrap;rounded=0;fontSize=40;rotation=-90;" parent="32" vertex="1">
                    <mxGeometry x="190.5" y="-184.5" width="161" height="30" as="geometry"/>
                </mxCell>
                <mxCell id="29" value="" style="ellipse;whiteSpace=wrap;html=1;aspect=fixed;fillColor=#000000;rotation=-90;" parent="32" vertex="1">
                    <mxGeometry x="303" y="7" width="3" height="3" as="geometry"/>
                </mxCell>
                <mxCell id="30" value="" style="ellipse;whiteSpace=wrap;html=1;aspect=fixed;fillColor=#000000;rotation=-90;" parent="32" vertex="1">
                    <mxGeometry x="303" y="-33" width="3" height="3" as="geometry"/>
                </mxCell>
                <mxCell id="31" value="" style="ellipse;whiteSpace=wrap;html=1;aspect=fixed;fillColor=#000000;rotation=-90;" parent="32" vertex="1">
                    <mxGeometry x="303" y="-12" width="3" height="3" as="geometry"/>
                </mxCell>
                <mxCell id="41" value="" style="whiteSpace=wrap;html=1;aspect=fixed;dashed=1;fontSize=24;fillColor=none;" parent="1" vertex="1">
                    <mxGeometry x="170" y="250" width="150" height="150" as="geometry"/>
                </mxCell>
                <mxCell id="43" value="" style="whiteSpace=wrap;html=1;aspect=fixed;dashed=1;fontSize=24;fillColor=none;" parent="1" vertex="1">
                    <mxGeometry x="481" y="560" width="150" height="150" as="geometry"/>
                </mxCell>
                <mxCell id="44" value="" style="whiteSpace=wrap;html=1;aspect=fixed;dashed=1;fontSize=24;fillColor=none;" parent="1" vertex="1">
                    <mxGeometry x="325" y="405" width="150" height="150" as="geometry"/>
                </mxCell>
            </root>
        </mxGraphModel>
    </diagram>
</mxfile>